<svg width="77" height="17" viewBox="0 0 77 17" fill="none" xmlns="http://www.w3.org/2000/svg">
<g opacity="0.9" clip-path="url(#clip0_255_309071)">
<path d="M2.68038 12.0796C2.91639 13.0385 3.37155 13.7534 4.04586 14.2244C4.73703 14.6787 5.61363 14.9057 6.67565 14.9057C7.38368 14.9057 8.03271 14.7964 8.62276 14.5777C9.21274 14.359 9.6848 14.1235 10.0388 13.8712C10.5108 14.1403 10.7468 14.5188 10.7468 15.0066C10.7468 15.2926 10.6372 15.5618 10.4181 15.8141C10.199 16.0496 9.89549 16.2599 9.50776 16.445C9.13692 16.6132 8.6902 16.7478 8.16759 16.8487C7.66187 16.9496 7.11399 17.0001 6.52395 17.0001C5.5462 17.0001 4.65274 16.8655 3.84357 16.5964C3.05125 16.3272 2.36851 15.9235 1.79535 15.3852C1.22219 14.8468 0.775458 14.1824 0.455159 13.3918C0.15172 12.6011 0 11.6843 0 10.6413C0 9.63199 0.15172 8.74881 0.455159 7.99181C0.758599 7.21799 1.17161 6.57873 1.6942 6.07408C2.21679 5.55259 2.8321 5.15727 3.54012 4.88811C4.24815 4.61895 5.00675 4.48438 5.81592 4.48438C6.6251 4.48438 7.35841 4.61895 8.01589 4.88811C8.6902 5.14044 9.26335 5.50212 9.73535 5.97314C10.2242 6.42737 10.5951 6.97408 10.8479 7.61334C11.1177 8.25254 11.2526 8.95067 11.2526 9.70767C11.2526 10.1282 11.1514 10.4394 10.9491 10.6413C10.7468 10.8263 10.4518 10.9525 10.0641 11.0198L2.68038 12.0796ZM5.81592 6.5283C4.88875 6.5283 4.11329 6.83946 3.48955 7.46191C2.88268 8.0843 2.56238 8.97592 2.52866 10.1366L8.74919 9.25346C8.68175 8.49646 8.40356 7.85726 7.91473 7.33573C7.42584 6.7974 6.72626 6.5283 5.81592 6.5283Z" fill="#00003A" fill-opacity="0.9"/>
<path d="M22.895 4.58496C23.2659 4.58496 23.5693 4.67748 23.8054 4.86253C24.0413 5.03075 24.1594 5.30832 24.1594 5.69522C24.1594 5.89709 24.0919 6.24195 23.9571 6.72981C23.8391 7.20083 23.6705 7.75598 23.4513 8.39518C23.2321 9.03444 22.9877 9.72413 22.718 10.4643C22.4483 11.2045 22.1617 11.9446 21.8583 12.6848C21.5548 13.4082 21.2514 14.1064 20.948 14.7792C20.6613 15.4353 20.3917 15.9988 20.1388 16.4699C20.0039 16.554 19.8016 16.6297 19.5319 16.697C19.2622 16.7811 18.9587 16.8231 18.6216 16.8231C17.7956 16.8231 17.2561 16.596 17.0032 16.1418C16.7673 15.7212 16.4553 15.0652 16.0676 14.1736C15.6799 13.2652 15.2838 12.2811 14.8791 11.2213C14.4746 10.1447 14.0784 9.0765 13.6907 8.01671C13.3198 6.94004 13.0248 6.01485 12.8057 5.24103C12.9574 5.05598 13.1597 4.90458 13.4125 4.78683C13.6654 4.65225 13.9351 4.58496 14.2217 4.58496C14.6095 4.58496 14.9129 4.67748 15.1321 4.86253C15.368 5.03075 15.5534 5.33355 15.6883 5.77092L17.0791 10.111C17.1803 10.4307 17.2982 10.7839 17.4331 11.1708C17.568 11.5577 17.7029 11.9531 17.8377 12.3568C17.9725 12.7437 18.1074 13.1222 18.2423 13.4923C18.3772 13.8456 18.4867 14.1484 18.571 14.4007H18.6975C19.2706 12.8195 19.8185 11.2297 20.341 9.63164C20.8637 8.01671 21.3188 6.42702 21.7066 4.86253C22.0268 4.67748 22.423 4.58496 22.895 4.58496Z" fill="#00003A" fill-opacity="0.9"/>
<path d="M37.9146 10.7422C37.9146 11.7011 37.7713 12.5675 37.4847 13.3413C37.1982 14.1151 36.7935 14.7712 36.271 15.3095C35.7652 15.8478 35.1415 16.2683 34.3998 16.5711C33.658 16.8571 32.832 17.0001 31.9217 17.0001C31.0113 17.0001 30.1853 16.8571 29.4436 16.5711C28.7018 16.2683 28.0697 15.8478 27.5471 15.3095C27.0414 14.7712 26.6452 14.1151 26.3586 13.3413C26.072 12.5675 25.9287 11.7011 25.9287 10.7422C25.9287 9.78336 26.072 8.91705 26.3586 8.14323C26.6452 7.36936 27.0498 6.71335 27.5724 6.17501C28.095 5.6367 28.7271 5.22456 29.4688 4.93858C30.2106 4.63578 31.0282 4.48438 31.9217 4.48438C32.8151 4.48438 33.6328 4.63578 34.3745 4.93858C35.1162 5.22456 35.7484 5.64511 36.271 6.20024C36.7935 6.73853 37.1982 7.3946 37.4847 8.16842C37.7713 8.92542 37.9146 9.78336 37.9146 10.7422ZM31.9217 6.60398C30.9102 6.60398 30.1094 6.96564 29.5195 7.68902C28.9294 8.41234 28.6344 9.43013 28.6344 10.7422C28.6344 12.0544 28.921 13.0721 29.4941 13.7955C30.0673 14.502 30.8765 14.8553 31.9217 14.8553C32.9668 14.8553 33.776 14.502 34.3492 13.7955C34.9223 13.0721 35.209 12.0544 35.209 10.7422C35.209 9.44694 34.9139 8.43759 34.3239 7.71427C33.7507 6.97408 32.95 6.60398 31.9217 6.60398Z" fill="#00003A" fill-opacity="0.9"/>
<path d="M42.3779 16.7981C41.889 16.7981 41.5266 16.7055 41.2905 16.5205C41.0545 16.3354 40.9365 16.0242 40.9365 15.5868V0.270225C41.0545 0.236581 41.2231 0.194525 41.4422 0.144058C41.6614 0.0935924 41.8974 0.0683594 42.1503 0.0683594C42.6392 0.0683594 43.0016 0.160882 43.2376 0.345926C43.4736 0.53097 43.5916 0.842182 43.5916 1.27956V16.5962C43.4567 16.6466 43.2797 16.6887 43.0606 16.7223C42.8583 16.7728 42.6307 16.7981 42.3779 16.7981Z" fill="white"/>
<path d="M42.3788 16.7297C41.8899 16.7297 41.5275 16.6371 41.2915 16.4521C41.0555 16.267 40.9375 15.9559 40.9375 15.5185V0.201865C41.0555 0.168221 41.2241 0.126165 41.4432 0.0756985C41.6624 0.0252325 41.8984 0 42.1512 0C42.6401 0 43.0026 0.0925222 43.2386 0.277567C43.4746 0.46261 43.5926 0.773821 43.5926 1.2112V16.5278C43.4577 16.5783 43.2807 16.6203 43.0616 16.654C42.8593 16.7045 42.6317 16.7297 42.3788 16.7297Z" fill="#1A1A4E"/>
<path d="M55.4246 3.98652C55.2223 4.72669 55.0031 5.47528 54.7671 6.23228C54.548 6.97249 54.3204 7.69581 54.0844 8.40238C53.8652 9.10888 53.6461 9.76496 53.4269 10.3705C53.2246 10.9762 53.0392 11.5061 52.8706 11.9602C52.7021 12.078 52.4998 12.1705 52.2637 12.2378C52.0278 12.3051 51.7327 12.3388 51.3787 12.3388C50.991 12.3388 50.6454 12.2799 50.3419 12.1621C50.0385 12.0443 49.8362 11.8593 49.7351 11.607C49.5328 11.2032 49.2968 10.5556 49.0271 9.66403C48.7573 8.77241 48.4876 7.79674 48.2179 6.73694C47.9482 5.67715 47.6869 4.60894 47.434 3.53232C47.1812 2.45569 46.9789 1.51365 46.8271 0.706185C46.962 0.554785 47.1474 0.420207 47.3834 0.302451C47.6363 0.167874 47.9145 0.100586 48.2179 0.100586C48.9765 0.100586 49.4316 0.529553 49.5834 1.38749C49.7351 2.24542 49.8952 3.11176 50.0638 3.98652C50.2492 4.86127 50.4263 5.68556 50.5948 6.4594C50.7634 7.21641 50.9151 7.89767 51.05 8.50331C51.2017 9.09207 51.3113 9.53785 51.3787 9.84064H51.4799C51.5641 9.53785 51.6906 9.10045 51.8592 8.52849C52.0446 7.93972 52.2469 7.27528 52.466 6.53508C52.7021 5.77808 52.9549 4.97062 53.2246 4.11268C53.4944 3.23793 53.7725 2.37158 54.0591 1.51365C54.4468 1.27814 54.9104 1.16039 55.4498 1.16039C55.8376 1.16039 56.1579 1.22768 56.4107 1.36225C56.6805 1.49683 56.8575 1.69028 56.9418 1.94261C57.2115 2.78373 57.4728 3.61643 57.7256 4.44071C57.9785 5.24818 58.2061 6.00518 58.4084 6.7117C58.6275 7.41827 58.8129 8.04065 58.9647 8.57899C59.1333 9.11732 59.2597 9.53785 59.344 9.84064H59.4704C59.8076 8.39394 60.1616 6.86312 60.5325 5.24818C60.9033 3.63325 61.2152 2.01832 61.4681 0.403385C61.6367 0.319274 61.8221 0.251985 62.0244 0.201519C62.2264 0.13423 62.4288 0.100586 62.6313 0.100586C63.002 0.100586 63.297 0.184696 63.5162 0.352918C63.7521 0.52114 63.8701 0.790297 63.8701 1.16039C63.8701 1.37908 63.8198 1.74916 63.7186 2.27065C63.6174 2.79214 63.4739 3.40615 63.2889 4.11268C63.12 4.80239 62.9262 5.54257 62.707 6.33322C62.5046 7.10704 62.2941 7.85561 62.075 8.57899C61.8726 9.30231 61.6704 9.96682 61.4681 10.5724C61.2658 11.178 61.0972 11.6406 60.9624 11.9602C60.8275 12.0612 60.6252 12.1453 60.3555 12.2126C60.0857 12.2967 59.7823 12.3388 59.4452 12.3388C58.5517 12.3388 58.0291 12.1285 57.8774 11.7079C57.7256 11.3042 57.5487 10.8079 57.3463 10.2192C57.144 9.63034 56.9333 8.99952 56.7142 8.32663C56.4951 7.63694 56.2759 6.92199 56.0567 6.18182C55.8376 5.44164 55.6269 4.70988 55.4246 3.98652Z" fill="#00003A" fill-opacity="0.9"/>
<path d="M68.4288 7.59522C68.6647 8.55409 69.1199 9.26903 69.7943 9.74006C70.4854 10.1943 71.3616 10.4214 72.4241 10.4214C73.132 10.4214 73.7809 10.312 74.3708 10.0933C74.9607 9.87461 75.4326 9.63913 75.7872 9.38677C76.2591 9.65594 76.4951 10.0345 76.4951 10.5223C76.4951 10.8083 76.3852 11.0775 76.166 11.3297C75.9468 11.5653 75.6438 11.7755 75.2557 11.9606C74.8849 12.1288 74.4385 12.2634 73.9156 12.3644C73.4101 12.4653 72.8618 12.5157 72.2719 12.5157C71.2945 12.5157 70.4009 12.3812 69.5918 12.112C68.7995 11.8428 68.1164 11.4391 67.5433 10.9008C66.9701 10.3625 66.5236 9.698 66.2032 8.90737C65.9002 8.11674 65.748 7.19988 65.748 6.15693C65.748 5.14759 65.9002 4.26443 66.2032 3.50743C66.5069 2.73361 66.9198 2.09436 67.4427 1.5897C67.9649 1.06821 68.5803 0.672891 69.2882 0.403733C69.9961 0.134578 70.7549 0 71.564 0C72.3731 0 73.1065 0.134578 73.7641 0.403733C74.4385 0.656068 75.0116 1.01775 75.4836 1.48877C75.9723 1.94297 76.343 2.48969 76.5963 3.12893C76.8658 3.76818 77.0006 4.4663 77.0006 5.22329C77.0006 5.64385 76.8994 5.95506 76.6975 6.15693C76.4951 6.34195 76.2001 6.46812 75.812 6.53543L68.4288 7.59522ZM71.564 2.0439C70.6369 2.0439 69.8613 2.35511 69.2379 2.97753C68.6306 3.59995 68.3108 4.49153 68.2766 5.65226L74.4975 4.7691C74.4298 4.01209 74.1516 3.37285 73.6629 2.85137C73.1742 2.31305 72.4744 2.0439 71.564 2.0439Z" fill="#00003A" fill-opacity="0.9"/>
</g>
<defs>
<clipPath id="clip0_255_309071">
<rect width="77" height="17" fill="white"/>
</clipPath>
</defs>
</svg>
